REM DIRINDEX 1\2,1\3,1\4
REM DIRNAME folder01,folder02,folder03,folder04
TITLE ""
FILE "Track14.mp3" MP3
  TRACK 01 AUDIO
    TITLE "2:cjc112_064"
    INDEX 01 00:00:00
  TRACK 02 AUDIO
    TITLE "0:"
    INDEX 01 00:01:24
  TRACK 03 AUDIO
    TITLE "3:cjc112_065"
    INDEX 01 00:01:66
  TRACK 04 AUDIO
    TITLE "0:"
    INDEX 01 00:05:22
  TRACK 05 AUDIO
    TITLE "4:cjc112_066"
    INDEX 01 00:08:64
  TRACK 06 AUDIO
    TITLE "0:"
    INDEX 01 00:12:24
